<?xml version="1.0" encoding="UTF-8" standalone="no"?>
<!-- Created with Inkscape (http://www.inkscape.org/) -->

<svg
   xmlns:dc="http://purl.org/dc/elements/1.1/"
   xmlns:cc="http://creativecommons.org/ns#"
   xmlns:rdf="http://www.w3.org/1999/02/22-rdf-syntax-ns#"
   xmlns:svg="http://www.w3.org/2000/svg"
   xmlns="http://www.w3.org/2000/svg"
   version="1.1"
   width="210mm"
   height="297mm"
   id="svg3118">
  <defs
     id="defs3120" />
  <metadata
     id="metadata3123">
    <rdf:RDF>
      <cc:Work
         rdf:about="">
        <dc:format>image/svg+xml</dc:format>
        <dc:type
           rdf:resource="http://purl.org/dc/dcmitype/StillImage" />
        <dc:title></dc:title>
      </cc:Work>
    </rdf:RDF>
  </metadata>
  <g
     id="layer1">
    <g
       transform="matrix(1.2284069,0,0,1.2284069,98.286164,256.36218)"
       id="g3187">
      <g
         id="g3127">
        <g
           id="g3129">
          <path
             d="m 106.808,309.6 h 256 c 4.8,0 8,-3.2 8,-8 V 30.4 c 0,-16.8 -13.6,-30.4 -30.4,-30.4 h -264 c -16.8,0 -30.4,13.6 -30.4,30.4 v 324.8 c -0.8,33.6 27.2,61.6 60.8,61.6 h 256 c 4.8,0 8,-3.2 8,-8 0,-4.8 -3.2,-8 -8,-8 h -256 c -24.8,0 -45.6,-20.8 -45.6,-45.6 0,-24.8 20.8,-45.6 45.6,-45.6 z m -46.4,4 V 30.4 h 0.8 c 0,-8 6.4,-14.4 14.4,-14.4 h 264 c 8,0 14.4,6.4 14.4,14.4 v 263.2 h -248 c -18.4,0 -34.4,8 -45.6,20 z"
             id="path3131"
             style="fill:#d80027" />
        </g>
      </g>
      <g
         id="g3133">
        <g
           id="g3135">
          <path
             d="m 362.008,364 h -268 c -4.8,0 -8,3.2 -8,8 0,4.8 3.2,8 8,8 h 268 c 4.8,0 8,-3.2 8,-8 0,-4.8 -3.2,-8 -8,-8 z"
             id="path3137"
             style="fill:#d80027" />
        </g>
      </g>
      <g
         id="g3139">
        <g
           id="g3141">
          <path
             d="m 362.008,328.8 h -268 c -4.8,0 -8,3.2 -8,8 0,4.8 3.2,8 8,8 h 268 c 4.8,0 8,-3.2 8,-8 0,-4.8 -3.2,-8 -8,-8 z"
             id="path3143"
             style="fill:#d80027" />
        </g>
      </g>
      <g
         id="g3145">
        <g
           id="g3147">
          <path
             d="m 281.208,72.8 h -145.6 c -9.6,0 -17.6,8 -17.6,17.6 v 63.2 c 0,9.6 8,17.6 17.6,17.6 h 145.6 c 9.6,0 17.6,-8 17.6,-17.6 V 90.4 c 0,-9.6 -8,-17.6 -17.6,-17.6 z m 1.6,80.8 c 0,0.8 -0.8,1.6 -1.6,1.6 h -145.6 c -0.8,0 -1.6,-0.8 -1.6,-1.6 V 90.4 h 0 c 0,-0.8 0.8,-1.6 1.6,-1.6 h 145.6 c 0.8,0 1.6,0.8 1.6,1.6 v 63.2 z"
             id="path3149"
             style="fill:#d80027" />
        </g>
      </g>
      <g
         id="g3151" />
      <g
         id="g3153" />
      <g
         id="g3155" />
      <g
         id="g3157" />
      <g
         id="g3159" />
      <g
         id="g3161" />
      <g
         id="g3163" />
      <g
         id="g3165" />
      <g
         id="g3167" />
      <g
         id="g3169" />
      <g
         id="g3171" />
      <g
         id="g3173" />
      <g
         id="g3175" />
      <g
         id="g3177" />
      <g
         id="g3179" />
    </g>
  </g>
</svg>
