<?xml version="1.0" encoding="UTF-8" standalone="no"?>
<!-- Created with Inkscape (http://www.inkscape.org/) -->

<svg
   xmlns:dc="http://purl.org/dc/elements/1.1/"
   xmlns:cc="http://creativecommons.org/ns#"
   xmlns:rdf="http://www.w3.org/1999/02/22-rdf-syntax-ns#"
   xmlns:svg="http://www.w3.org/2000/svg"
   xmlns="http://www.w3.org/2000/svg"
   version="1.1"
   width="210mm"
   height="297mm"
   id="svg2">
  <defs
     id="defs4" />
  <metadata
     id="metadata7">
    <rdf:RDF>
      <cc:Work
         rdf:about="">
        <dc:format>image/svg+xml</dc:format>
        <dc:type
           rdf:resource="http://purl.org/dc/dcmitype/StillImage" />
        <dc:title></dc:title>
      </cc:Work>
    </rdf:RDF>
  </metadata>
  <g
     id="layer1">
    <g
       transform="matrix(5.2571593,0,0,5.2571593,112.57406,179.21936)"
       id="g3045">
      <g
         id="g3005">
        <path
           d="m 0,7.573 h 17.5 v 8.75 H 0 v -8.75 z m 0,12.25 H 17.5 V 79.324 H 0 V 19.823 z m 3.208,48.489 c 0,3.021 2.447,5.47 5.469,5.47 3.021,0 5.469,-2.447 5.469,-5.47 0,-3.023 -2.448,-5.47 -5.469,-5.47 -3.022,0.001 -5.469,2.451 -5.469,5.47 z M 0,89.824 h 17.5 v -7 H 0 v 7 z M 21,81.6 v 1.225 7 H 43.75 V 81.557 C 42.821,80.893 39.935,79.325 33.25,79.325 26.913,79.324 22.866,80.744 21,81.6 z m 0,-50.343 c 1.866,0.854 5.913,2.276 12.25,2.276 6.643,-0.001 9.536,-1.55 10.5,-2.245 V 25.073 H 21 v 6.184 z m 0,3.789 V 77.81 c 2.534,-0.948 6.592,-1.985 12.25,-1.985 5.105,0 8.417,0.854 10.5,1.767 V 35.268 c -2.083,0.91 -5.395,1.765 -10.5,1.765 C 27.592,37.031 23.534,35.994 21,35.046 z M 80.859,7.18 l -12,2.462 1.76,8.571 12,-2.462 -1.76,-8.571 z m 14.42,70.289 -11.998,2.463 -11.961,-58.289 12,-2.462 11.959,58.288 z M 91.116,67.08 c -0.607,-2.957 -2.972,-4.971 -5.275,-4.498 -2.307,0.475 -3.688,3.258 -3.077,6.215 0.606,2.957 2.969,4.973 5.274,4.498 2.308,-0.473 3.687,-3.254 3.078,-6.215 z m 4.868,13.813 -12.002,2.464 1.408,6.854 12,-2.463 -1.406,-6.855 z M 49,16.323 H 66.5 V 7.573 H 49 v 8.75 z m 0,73.501 h 17.5 v -7 H 49 v 7 z m 0,-19.25 H 66.5 V 28.573 H 49 v 42.001 z m 0,8.75 h 17.5 v -5.25 H 49 v 5.25 z m 0,-54.251 h 17.5 v -5.25 H 49 v 5.25 z"
           id="path3007"
           style="fill:#006df0" />
      </g>
      <g
         id="g3009" />
      <g
         id="g3011" />
      <g
         id="g3013" />
      <g
         id="g3015" />
      <g
         id="g3017" />
      <g
         id="g3019" />
      <g
         id="g3021" />
      <g
         id="g3023" />
      <g
         id="g3025" />
      <g
         id="g3027" />
      <g
         id="g3029" />
      <g
         id="g3031" />
      <g
         id="g3033" />
      <g
         id="g3035" />
      <g
         id="g3037" />
    </g>
  </g>
</svg>
